<svg width="21" height="21" viewBox="0 0 21 21" fill="none" xmlns="http://www.w3.org/2000/svg">
<path fill-rule="evenodd" clip-rule="evenodd" d="M13 18V20H2C0.89543 20 0 19.1046 0 18V2C0 0.89543 0.89543 0 2 0H18C19.1046 0 20 0.89543 20 2V12H18V2H2V18H13ZM10 5.13148V10.1405C9.68446 10.049 9.34713 10 9 10C7.39543 10 6 11.0466 6 12.5C6 13.9534 7.39543 15 9 15C10.6046 15 12 13.9534 12 12.5V8.86852L13.4453 9.83205L14.5547 8.16795L10 5.13148ZM15 19H17V21H19V19H21V17H19V15H17V17H15V19ZM10 12.5C10 12.7034 9.60457 13 9 13C8.39543 13 8 12.7034 8 12.5C8 12.2966 8.39543 12 9 12C9.60457 12 10 12.2966 10 12.5Z" fill="#604E3A"/>
</svg>
